<mxfile host="app.diagrams.net" modified="2023-07-04T17:13:35.773Z" agent="Mozilla/5.0 (Windows NT 10.0; Win64; x64) AppleWebKit/537.36 (KHTML, like Gecko) Chrome/114.0.0.0 Safari/537.36" etag="P9IJKWz3d86jEpCS__Y_" version="21.5.2" type="github">
  <diagram name="Pagina-1" id="WuG5oDFA0w9qseAFticR">
    <mxGraphModel dx="1521" dy="838" grid="1" gridSize="10" guides="1" tooltips="1" connect="1" arrows="1" fold="1" page="1" pageScale="1" pageWidth="827" pageHeight="1169" math="0" shadow="0">
      <root>
        <mxCell id="0" />
        <mxCell id="1" parent="0" />
        <mxCell id="_rqKJHLwqv8T1QupsVQK-1" value="&lt;font style=&quot;font-size: 24px;&quot;&gt;CPU&lt;/font&gt;" style="rounded=1;whiteSpace=wrap;html=1;" vertex="1" parent="1">
          <mxGeometry x="1000" y="474" width="120" height="110" as="geometry" />
        </mxCell>
        <mxCell id="_rqKJHLwqv8T1QupsVQK-3" value="" style="shape=flexArrow;endArrow=classic;html=1;rounded=0;entryX=0;entryY=0.5;entryDx=0;entryDy=0;exitX=1;exitY=0.5;exitDx=0;exitDy=0;" edge="1" parent="1" target="_rqKJHLwqv8T1QupsVQK-1">
          <mxGeometry width="50" height="50" relative="1" as="geometry">
            <mxPoint x="890" y="528.9999999999998" as="sourcePoint" />
            <mxPoint x="810" y="540" as="targetPoint" />
          </mxGeometry>
        </mxCell>
        <mxCell id="_rqKJHLwqv8T1QupsVQK-4" value="&lt;font style=&quot;font-size: 24px;&quot;&gt;DMA&lt;/font&gt;" style="rounded=1;whiteSpace=wrap;html=1;" vertex="1" parent="1">
          <mxGeometry x="1230" y="499" width="120" height="60" as="geometry" />
        </mxCell>
        <mxCell id="_rqKJHLwqv8T1QupsVQK-5" value="&lt;font style=&quot;font-size: 24px;&quot;&gt;ADC 1&lt;br&gt;&lt;/font&gt;" style="rounded=1;whiteSpace=wrap;html=1;" vertex="1" parent="1">
          <mxGeometry x="1450" y="389" width="120" height="110" as="geometry" />
        </mxCell>
        <mxCell id="_rqKJHLwqv8T1QupsVQK-6" value="&lt;font style=&quot;font-size: 24px;&quot;&gt;ADC 2&lt;br&gt;&lt;/font&gt;" style="rounded=1;whiteSpace=wrap;html=1;" vertex="1" parent="1">
          <mxGeometry x="1450" y="559" width="120" height="110" as="geometry" />
        </mxCell>
        <mxCell id="_rqKJHLwqv8T1QupsVQK-7" value="" style="shape=flexArrow;endArrow=classic;startArrow=classic;html=1;rounded=0;entryX=0;entryY=0.5;entryDx=0;entryDy=0;exitX=1;exitY=0.5;exitDx=0;exitDy=0;" edge="1" parent="1" source="_rqKJHLwqv8T1QupsVQK-4" target="_rqKJHLwqv8T1QupsVQK-5">
          <mxGeometry width="100" height="100" relative="1" as="geometry">
            <mxPoint x="730" y="600" as="sourcePoint" />
            <mxPoint x="830" y="500" as="targetPoint" />
          </mxGeometry>
        </mxCell>
        <mxCell id="_rqKJHLwqv8T1QupsVQK-8" value="" style="shape=flexArrow;endArrow=classic;startArrow=classic;html=1;rounded=0;entryX=0;entryY=0.5;entryDx=0;entryDy=0;exitX=1;exitY=0.5;exitDx=0;exitDy=0;" edge="1" parent="1" source="_rqKJHLwqv8T1QupsVQK-4" target="_rqKJHLwqv8T1QupsVQK-6">
          <mxGeometry width="100" height="100" relative="1" as="geometry">
            <mxPoint x="910" y="610" as="sourcePoint" />
            <mxPoint x="1010" y="510" as="targetPoint" />
          </mxGeometry>
        </mxCell>
        <mxCell id="_rqKJHLwqv8T1QupsVQK-9" value="" style="shape=flexArrow;endArrow=classic;html=1;rounded=0;exitX=0;exitY=0.5;exitDx=0;exitDy=0;entryX=1;entryY=0.5;entryDx=0;entryDy=0;" edge="1" parent="1" source="_rqKJHLwqv8T1QupsVQK-4" target="_rqKJHLwqv8T1QupsVQK-1">
          <mxGeometry width="50" height="50" relative="1" as="geometry">
            <mxPoint x="930" y="580" as="sourcePoint" />
            <mxPoint x="980" y="530" as="targetPoint" />
          </mxGeometry>
        </mxCell>
        <mxCell id="_rqKJHLwqv8T1QupsVQK-16" value="&lt;font style=&quot;font-size: 24px;&quot;&gt;FREERTOS&lt;/font&gt;" style="swimlane;fontStyle=0;childLayout=stackLayout;horizontal=1;startSize=50;horizontalStack=0;resizeParent=1;resizeParentMax=0;resizeLast=0;collapsible=1;marginBottom=0;whiteSpace=wrap;html=1;" vertex="1" parent="1">
          <mxGeometry x="650" y="320" width="240" height="290" as="geometry" />
        </mxCell>
        <mxCell id="_rqKJHLwqv8T1QupsVQK-17" value="can1TxTask" style="text;strokeColor=none;fillColor=none;align=left;verticalAlign=middle;spacingLeft=4;spacingRight=4;overflow=hidden;points=[[0,0.5],[1,0.5]];portConstraint=eastwest;rotatable=0;whiteSpace=wrap;html=1;" vertex="1" parent="_rqKJHLwqv8T1QupsVQK-16">
          <mxGeometry y="50" width="240" height="30" as="geometry" />
        </mxCell>
        <mxCell id="_rqKJHLwqv8T1QupsVQK-18" value="can1RxTask" style="text;strokeColor=none;fillColor=none;align=left;verticalAlign=middle;spacingLeft=4;spacingRight=4;overflow=hidden;points=[[0,0.5],[1,0.5]];portConstraint=eastwest;rotatable=0;whiteSpace=wrap;html=1;" vertex="1" parent="_rqKJHLwqv8T1QupsVQK-16">
          <mxGeometry y="80" width="240" height="30" as="geometry" />
        </mxCell>
        <mxCell id="_rqKJHLwqv8T1QupsVQK-19" value="can2TxTask" style="text;strokeColor=none;fillColor=none;align=left;verticalAlign=middle;spacingLeft=4;spacingRight=4;overflow=hidden;points=[[0,0.5],[1,0.5]];portConstraint=eastwest;rotatable=0;whiteSpace=wrap;html=1;" vertex="1" parent="_rqKJHLwqv8T1QupsVQK-16">
          <mxGeometry y="110" width="240" height="30" as="geometry" />
        </mxCell>
        <mxCell id="_rqKJHLwqv8T1QupsVQK-33" value="&amp;nbsp;can2RxTask" style="text;html=1;strokeColor=none;fillColor=none;align=left;verticalAlign=middle;whiteSpace=wrap;rounded=0;" vertex="1" parent="_rqKJHLwqv8T1QupsVQK-16">
          <mxGeometry y="140" width="240" height="30" as="geometry" />
        </mxCell>
        <mxCell id="_rqKJHLwqv8T1QupsVQK-34" value="can3TxTask" style="text;strokeColor=none;fillColor=none;align=left;verticalAlign=middle;spacingLeft=4;spacingRight=4;overflow=hidden;points=[[0,0.5],[1,0.5]];portConstraint=eastwest;rotatable=0;whiteSpace=wrap;html=1;" vertex="1" parent="_rqKJHLwqv8T1QupsVQK-16">
          <mxGeometry y="170" width="240" height="30" as="geometry" />
        </mxCell>
        <mxCell id="_rqKJHLwqv8T1QupsVQK-37" value="&amp;nbsp;can3RxTask" style="text;html=1;strokeColor=none;fillColor=none;align=left;verticalAlign=middle;whiteSpace=wrap;rounded=0;" vertex="1" parent="_rqKJHLwqv8T1QupsVQK-16">
          <mxGeometry y="200" width="240" height="30" as="geometry" />
        </mxCell>
        <mxCell id="_rqKJHLwqv8T1QupsVQK-36" value="usbTxTask" style="text;strokeColor=none;fillColor=none;align=left;verticalAlign=middle;spacingLeft=4;spacingRight=4;overflow=hidden;points=[[0,0.5],[1,0.5]];portConstraint=eastwest;rotatable=0;whiteSpace=wrap;html=1;" vertex="1" parent="_rqKJHLwqv8T1QupsVQK-16">
          <mxGeometry y="230" width="240" height="30" as="geometry" />
        </mxCell>
        <mxCell id="_rqKJHLwqv8T1QupsVQK-35" value="usbRxTask" style="text;strokeColor=none;fillColor=none;align=left;verticalAlign=middle;spacingLeft=4;spacingRight=4;overflow=hidden;points=[[0,0.5],[1,0.5]];portConstraint=eastwest;rotatable=0;whiteSpace=wrap;html=1;" vertex="1" parent="_rqKJHLwqv8T1QupsVQK-16">
          <mxGeometry y="260" width="240" height="30" as="geometry" />
        </mxCell>
        <mxCell id="_rqKJHLwqv8T1QupsVQK-21" value="&lt;font style=&quot;font-size: 24px;&quot;&gt;CAN 1&lt;br&gt;&lt;/font&gt;" style="rounded=1;whiteSpace=wrap;html=1;" vertex="1" parent="1">
          <mxGeometry x="910" y="130" width="120" height="110" as="geometry" />
        </mxCell>
        <mxCell id="_rqKJHLwqv8T1QupsVQK-23" value="INVERTER (CAN 4)" style="text;html=1;strokeColor=none;fillColor=none;align=center;verticalAlign=middle;whiteSpace=wrap;rounded=0;" vertex="1" parent="1">
          <mxGeometry x="940" y="200" width="60" height="30" as="geometry" />
        </mxCell>
        <mxCell id="_rqKJHLwqv8T1QupsVQK-24" value="&lt;font style=&quot;font-size: 24px;&quot;&gt;CAN 2&lt;br&gt;&lt;/font&gt;" style="rounded=1;whiteSpace=wrap;html=1;" vertex="1" parent="1">
          <mxGeometry x="730" y="130" width="120" height="110" as="geometry" />
        </mxCell>
        <mxCell id="_rqKJHLwqv8T1QupsVQK-25" value="SW ACTUATOR&lt;br&gt;(CAN 5)" style="text;html=1;strokeColor=none;fillColor=none;align=center;verticalAlign=middle;whiteSpace=wrap;rounded=0;" vertex="1" parent="1">
          <mxGeometry x="740" y="200" width="100" height="30" as="geometry" />
        </mxCell>
        <mxCell id="_rqKJHLwqv8T1QupsVQK-26" value="&lt;font style=&quot;font-size: 24px;&quot;&gt;CAN 3&lt;br&gt;&lt;/font&gt;" style="rounded=1;whiteSpace=wrap;html=1;" vertex="1" parent="1">
          <mxGeometry x="550" y="130" width="120" height="110" as="geometry" />
        </mxCell>
        <mxCell id="_rqKJHLwqv8T1QupsVQK-27" value="TO BOARDS&lt;br&gt;(CAN 1)" style="text;html=1;strokeColor=none;fillColor=none;align=center;verticalAlign=middle;whiteSpace=wrap;rounded=0;" vertex="1" parent="1">
          <mxGeometry x="560" y="200" width="100" height="30" as="geometry" />
        </mxCell>
        <mxCell id="_rqKJHLwqv8T1QupsVQK-41" value="&lt;font style=&quot;font-size: 24px;&quot;&gt;USB&lt;br&gt;&lt;/font&gt;" style="rounded=1;whiteSpace=wrap;html=1;" vertex="1" parent="1">
          <mxGeometry x="413" y="270" width="120" height="110" as="geometry" />
        </mxCell>
        <mxCell id="_rqKJHLwqv8T1QupsVQK-42" value="&lt;font style=&quot;font-size: 16px;&quot;&gt;PC&lt;br&gt;DRIVERLESS&lt;br&gt;TORQUE VECTORING&lt;/font&gt;" style="rounded=0;whiteSpace=wrap;html=1;" vertex="1" parent="1">
          <mxGeometry x="220" y="145" width="200" height="80" as="geometry" />
        </mxCell>
        <mxCell id="_rqKJHLwqv8T1QupsVQK-44" value="" style="shape=flexArrow;endArrow=classic;startArrow=classic;html=1;rounded=0;exitX=1;exitY=0.5;exitDx=0;exitDy=0;entryX=0.5;entryY=0;entryDx=0;entryDy=0;" edge="1" parent="1" source="_rqKJHLwqv8T1QupsVQK-42" target="_rqKJHLwqv8T1QupsVQK-41">
          <mxGeometry width="100" height="100" relative="1" as="geometry">
            <mxPoint x="910" y="590" as="sourcePoint" />
            <mxPoint x="1010" y="490" as="targetPoint" />
            <Array as="points">
              <mxPoint x="473" y="185" />
            </Array>
          </mxGeometry>
        </mxCell>
      </root>
    </mxGraphModel>
  </diagram>
</mxfile>
